<svg width="28" height="28" viewBox="0 0 28 28" fill="none" xmlns="http://www.w3.org/2000/svg">
<rect width="28" height="28" rx="14" fill="#70992B"/>
<path d="M14.297 9.61381C12.8742 10.0218 11.9494 11.4261 12.0021 12.9375C12.0131 13.2515 12.0186 13.4084 12.1527 13.4778C12.2869 13.5472 12.4261 13.4489 12.7045 13.2521L13.3253 12.8134C13.4185 12.7475 13.5292 12.7158 13.6407 12.7229L15.0988 12.8166L16.3178 11.9552C16.4111 11.8893 16.5217 11.8576 16.6333 11.8648L17.3939 11.9136C17.7203 11.9346 17.8835 11.9451 17.9645 11.8194C18.0456 11.6938 17.9797 11.5579 17.8479 11.2862C17.1928 9.93495 15.7276 9.20354 14.297 9.61381Z" fill="white"/>
<path d="M9 15.8751C9 15.8751 9.89767 15.5 11.5 15.5C14 15.5 16 17 19 17" stroke="white" stroke-width="1.125" stroke-linecap="round" stroke-linejoin="round"/>
<path d="M9 18.5H19" stroke="white" stroke-width="1.125" stroke-linecap="round" stroke-linejoin="round"/>
<path d="M14.297 9.61381C12.8742 10.0218 11.9494 11.4261 12.0021 12.9375C12.0131 13.2515 12.0186 13.4084 12.1527 13.4778C12.2869 13.5472 12.4261 13.4489 12.7045 13.2521L13.3253 12.8134C13.4185 12.7475 13.5292 12.7158 13.6407 12.7229L15.0988 12.8166L16.3178 11.9552C16.4111 11.8893 16.5217 11.8576 16.6333 11.8648L17.3939 11.9136C17.7203 11.9346 17.8835 11.9451 17.9645 11.8194C18.0456 11.6938 17.9797 11.5579 17.8479 11.2862C17.1928 9.93495 15.7276 9.20354 14.297 9.61381Z" stroke="white" stroke-width="1.125" stroke-linecap="round" stroke-linejoin="round"/>
<path d="M15.25 12.75L16.25 16.5M14.1428 9.5L14 9" stroke="white" stroke-width="1.125" stroke-linecap="round" stroke-linejoin="round"/>
</svg>
