<svg width="28" height="28" viewBox="0 0 28 28" fill="none" xmlns="http://www.w3.org/2000/svg">
<rect width="28" height="28" rx="14" fill="#A72D08"/>
<path d="M18.9979 17.648C18.9966 18.4775 18.9904 18.5239 18.8595 18.6814C18.8224 18.7261 18.7361 18.7879 18.6677 18.8188C18.5452 18.8742 18.5309 18.875 17.736 18.875C16.9585 18.875 16.9248 18.8731 16.8245 18.8235C16.7672 18.7951 16.6887 18.7413 16.6501 18.704C16.5181 18.5763 16.499 18.4944 16.499 18.0572C16.499 17.9741 16.499 17.9326 16.5222 17.9047C16.5257 17.9005 16.5295 17.8967 16.5336 17.8931C16.561 17.8694 16.6028 17.8687 16.6865 17.8672C17.1588 17.8588 17.3862 17.8416 17.6088 17.8063C17.6966 17.7924 17.7831 17.7758 17.8755 17.7581L17.8862 17.756C18.222 17.6916 18.5386 17.6022 18.8099 17.4803C18.8484 17.463 18.8677 17.4544 18.8794 17.4522C18.9342 17.4419 18.982 17.4728 18.995 17.527C18.9978 17.5386 18.9978 17.5579 18.9978 17.5967L18.9979 17.648Z" fill="white"/>
<path d="M9.0011 17.648C9.00232 18.4775 9.00855 18.5239 9.13943 18.6814C9.17652 18.7261 9.26285 18.7879 9.33128 18.8188C9.45379 18.8742 9.468 18.875 10.263 18.875C11.0405 18.875 11.0741 18.8731 11.1745 18.8235C11.2317 18.7951 11.3102 18.7413 11.3489 18.704C11.4808 18.5763 11.5 18.4944 11.5 18.0572C11.5 17.9741 11.5 17.9326 11.4767 17.9047C11.4733 17.9005 11.4695 17.8967 11.4654 17.8931C11.4379 17.8694 11.3961 17.8687 11.3124 17.8672C10.8401 17.8588 10.6128 17.8416 10.3902 17.8063C10.3023 17.7924 10.2159 17.7758 10.1235 17.7581L10.1128 17.756C9.77693 17.6916 9.46039 17.6022 9.18906 17.4803C9.15051 17.463 9.13124 17.4544 9.11956 17.4522C9.06478 17.4419 9.01698 17.4728 9.00391 17.527C9.00112 17.5386 9.00112 17.5579 9.00111 17.5967L9.0011 17.648Z" fill="white"/>
<path fill-rule="evenodd" clip-rule="evenodd" d="M12.1639 12.1377C12.4527 12.127 13.212 12.1237 14 12.1255C14.7881 12.1237 15.5474 12.127 15.8361 12.1377L16.0087 12.1437C16.7813 12.1693 17.6709 12.1989 18.4563 12.7316C18.9048 13.0357 19.2524 13.4325 19.336 13.8889C19.3683 14.0648 19.3774 14.3999 19.3746 14.7416C19.3716 15.0967 19.3551 15.5022 19.3255 15.8413C19.3102 16.0169 19.2938 16.1592 19.2734 16.2707C19.2552 16.3701 19.2263 16.4939 19.1599 16.5962C19.0331 16.7918 18.8213 16.9272 18.6053 17.0242C18.3802 17.1252 18.1038 17.2053 17.7922 17.265L17.7852 17.2663C17.6898 17.2846 17.6104 17.2998 17.5306 17.3125C17.136 17.3751 16.7314 17.3751 14.3258 17.375H13.6742C11.2687 17.3751 10.8641 17.3751 10.4694 17.3125C10.3896 17.2998 10.3102 17.2846 10.2148 17.2663L10.2078 17.265C9.89627 17.2053 9.6198 17.1252 9.39477 17.0242C9.17872 16.9272 8.967 16.7918 8.84012 16.5963C8.77376 16.494 8.74482 16.3701 8.72665 16.2707C8.70628 16.1592 8.68988 16.0169 8.67453 15.8412C8.64492 15.5022 8.62841 15.0967 8.62548 14.7416C8.62267 14.3999 8.63176 14.0648 8.66402 13.8889C8.74768 13.4325 9.09528 13.0356 9.5437 12.7316C10.3292 12.1989 11.2187 12.1693 11.9914 12.1437C12.0496 12.1417 12.1071 12.1398 12.1639 12.1377ZM14.4846 15.5H13.5157C13.0239 15.5 12.7779 15.5 12.5875 15.6368C12.4396 15.7429 12.3515 15.9125 12.2341 16.2096C12.1825 16.3401 12.1567 16.4053 12.1864 16.4527C12.2161 16.5 12.2835 16.5 12.4184 16.5H15.582C15.7169 16.5 15.7843 16.5 15.814 16.4527C15.8437 16.4053 15.8179 16.3401 15.7663 16.2096C15.6488 15.9125 15.5607 15.7429 15.4129 15.6368C15.2224 15.5 14.9765 15.5 14.4846 15.5ZM9.86869 13.6444C9.67221 13.5789 9.45984 13.685 9.39435 13.8815C9.32885 14.078 9.43504 14.2904 9.63152 14.3559L10.3815 14.6059C10.578 14.6714 10.7904 14.5651 10.8559 14.3687C10.9214 14.1722 10.8152 13.9599 10.6187 13.8944L9.86869 13.6444ZM18.3687 14.3559C18.5652 14.2904 18.6714 14.078 18.6059 13.8815C18.5404 13.685 18.328 13.5789 18.1315 13.6444L17.3815 13.8944C17.1851 13.9599 17.0789 14.1722 17.1444 14.3687C17.2099 14.5651 17.4222 14.6714 17.6187 14.6059L18.3687 14.3559Z" fill="white"/>
<path fill-rule="evenodd" clip-rule="evenodd" d="M8.77579 12.092C8.86312 11.83 9.14628 11.6885 9.40825 11.7758L10.1582 12.0258C10.4202 12.1131 10.5618 12.3963 10.4745 12.6582C10.3872 12.9202 10.104 13.0618 9.84202 12.9745L9.09202 12.7245C8.83005 12.6372 8.68847 12.354 8.77579 12.092ZM19.2245 12.092C19.3118 12.354 19.1702 12.6372 18.9082 12.7245L18.1582 12.9745C17.8963 13.0618 17.6131 12.9202 17.5258 12.6582C17.4384 12.3963 17.58 12.1131 17.842 12.0258L18.592 11.7758C18.854 11.6885 19.1371 11.83 19.2245 12.092Z" fill="white"/>
<path fill-rule="evenodd" clip-rule="evenodd" d="M16.5134 10.4252C15.041 9.94155 12.959 9.94155 11.4866 10.4252C11.4787 10.4278 11.4731 10.4313 11.4678 10.4364C11.4637 10.4403 11.4589 10.4461 11.4543 10.4541L10.8263 12.5372C10.7514 12.7857 10.4821 12.9286 10.2247 12.8562C9.9674 12.7838 9.81954 12.5236 9.89448 12.2751L10.5318 10.1612C10.5362 10.1463 10.5415 10.1317 10.5474 10.1173C10.6523 9.86554 10.8643 9.63945 11.1741 9.53768C12.8491 8.98744 15.1508 8.98744 16.8259 9.53768C17.1357 9.63945 17.3477 9.86554 17.4525 10.1173C17.4585 10.1317 17.4637 10.1463 17.4682 10.1612L18.1055 12.2751C18.1805 12.5236 18.0326 12.7838 17.7752 12.8562C17.5179 12.9286 17.2486 12.7857 17.1736 12.5372L16.5456 10.4541C16.541 10.4461 16.5363 10.4403 16.5322 10.4364C16.5268 10.4313 16.5212 10.4278 16.5134 10.4252Z" fill="white"/>
</svg>
