<svg width="28" height="28" viewBox="0 0 28 28" fill="none" xmlns="http://www.w3.org/2000/svg">
<rect width="28" height="28" rx="14" fill="#0882A7"/>
<g clip-path="url(#clip0_8046_1410)">
<path fill-rule="evenodd" clip-rule="evenodd" d="M18.8164 13.4943C18.9305 13.2297 18.8819 12.9014 18.6272 12.6785L15.6975 10.1148C15.6396 10.0641 15.5806 10.011 15.5205 9.95689C15.0884 9.56795 14.5962 9.125 13.9998 9.125C13.4035 9.125 12.9114 9.56794 12.4792 9.95689C12.4191 10.011 12.3601 10.0641 12.3022 10.1148L9.37245 12.6785C9.11771 12.9014 9.06915 13.2297 9.18331 13.4943C9.27169 13.6992 9.45296 13.859 9.68375 13.9177C9.78739 13.9441 9.83921 13.9574 9.86025 13.9843C9.88129 14.0113 9.88144 14.0545 9.88175 14.1409C9.88323 14.5507 9.88646 15.4606 9.88646 15.5696C9.88645 16.2423 9.88644 16.7881 9.94903 17.2181C10.0146 17.6684 10.1553 18.0456 10.4763 18.342C10.793 18.6345 11.1888 18.7593 11.6616 18.818C12.121 18.875 12.7066 18.875 13.44 18.875H14.5596C15.293 18.875 15.8787 18.875 16.3381 18.818C16.8109 18.7593 17.2067 18.6345 17.5234 18.342C17.8444 18.0456 17.9851 17.6684 18.0506 17.2181C18.1132 16.7881 18.1132 16.2423 18.1132 15.5696C18.1132 15.4606 18.1165 14.5507 18.118 14.1409C18.1183 14.0545 18.1184 14.0113 18.1395 13.9843C18.1605 13.9573 18.2123 13.9441 18.316 13.9177C18.5467 13.859 18.728 13.6992 18.8164 13.4943ZM14 15.375C13.6548 15.375 13.375 15.6548 13.375 16C13.375 16.3452 13.6548 16.625 14 16.625H14.0045C14.3496 16.625 14.6295 16.3452 14.6295 16C14.6295 15.6548 14.3496 15.375 14.0045 15.375H14Z" fill="white"/>
</g>
<defs>
<clipPath id="clip0_8046_1410">
<rect width="12" height="12" fill="white" transform="translate(8 8)"/>
</clipPath>
</defs>
</svg>
