<svg width="28" height="28" viewBox="0 0 28 28" fill="none" xmlns="http://www.w3.org/2000/svg">
<rect width="28" height="28" rx="14" fill="#006EFF"/>
<g clip-path="url(#clip0_8046_1412)">
<path d="M12.125 10.5C12.125 9.46446 12.9645 8.625 14 8.625C15.0355 8.625 15.875 9.46446 15.875 10.5C15.875 11.0368 15.5974 11.5594 15.2629 11.9351C15.0919 12.1271 14.8941 12.2948 14.6858 12.4167C14.4809 12.5366 14.2437 12.625 14 12.625C13.7563 12.625 13.5191 12.5366 13.3142 12.4167C13.1059 12.2948 12.9081 12.1271 12.7371 11.9351C12.4026 11.5594 12.125 11.0368 12.125 10.5Z" fill="white"/>
<path d="M12.026 12.2521C11.9914 12.2075 11.9741 12.1852 11.9577 12.173C11.9089 12.1366 11.8471 12.1327 11.7942 12.1627C11.7764 12.1728 11.7585 12.1907 11.7226 12.2266C10.8891 12.9632 10.298 14.252 10.8218 15.4981C10.9745 15.8614 11.3278 16.1022 11.7244 16.1022L11.8628 16.1011C11.9766 16.1001 12.0336 16.0997 12.0747 16.1317C12.1159 16.1637 12.1295 16.219 12.1566 16.3296L12.6387 18.2957C12.7931 18.9255 13.3512 19.3752 14.0001 19.3752C14.649 19.3752 15.207 18.9255 15.3615 18.2957L15.8436 16.3296C15.8707 16.219 15.8842 16.1637 15.9254 16.1317C15.9666 16.0997 16.0235 16.1001 16.1374 16.1011L16.2757 16.1022C16.6723 16.1022 17.0257 15.8614 17.1784 15.4981C17.7022 14.252 17.1111 12.9632 16.2776 12.2266C16.2416 12.1906 16.2236 12.1726 16.2058 12.1625C16.1529 12.1327 16.0912 12.1365 16.0425 12.1728C16.026 12.185 16.0087 12.2074 15.974 12.2522C15.9244 12.3162 15.8738 12.3769 15.823 12.4339C15.6074 12.676 15.35 12.897 15.0646 13.0641C14.7897 13.225 14.4206 13.3751 14 13.3751C13.5793 13.3751 13.2102 13.225 12.9354 13.0641C12.65 12.897 12.3926 12.676 12.177 12.4339C12.1262 12.3769 12.0756 12.3162 12.026 12.2521Z" fill="white"/>
</g>
<defs>
<clipPath id="clip0_8046_1412">
<rect width="12" height="12" fill="white" transform="translate(8 8)"/>
</clipPath>
</defs>
</svg>
